<?xml version="1.0" encoding="UTF-8"?>
<svg xmlns="http://www.w3.org/2000/svg" xmlns:xlink="http://www.w3.org/1999/xlink" width="40px" height="40px" viewBox="0 0 40 40" version="1.1">
<g id="surface1">
<path style=" stroke:none;fill-rule:nonzero;fill:rgb(100%,100%,100%);fill-opacity:1;" d="M 12.292969 23.164062 C 14.667969 26.019531 17.042969 28.875 19.421875 31.730469 C 19.597656 31.941406 19.800781 32.019531 20 32.003906 C 20.199219 32.019531 20.40625 31.941406 20.578125 31.730469 C 22.957031 28.875 25.332031 26.019531 27.707031 23.164062 C 28.148438 22.636719 27.894531 21.769531 27.128906 21.769531 L 24.136719 21.769531 L 24.136719 8.8125 C 24.136719 8.367188 23.765625 7.996094 23.320312 7.996094 L 16.679688 7.996094 C 16.234375 7.996094 15.863281 8.367188 15.863281 8.8125 L 15.863281 21.769531 L 12.871094 21.769531 C 12.105469 21.769531 11.851562 22.636719 12.292969 23.164062 Z M 12.292969 23.164062 "/>
<path style=" stroke:none;fill-rule:nonzero;fill:rgb(100%,100%,100%);fill-opacity:1;" d="M 20 40 C 31.046875 40 40 31.046875 40 20 C 40 8.953125 31.046875 0 20 0 C 8.953125 0 0 8.953125 0 20 C 0 31.046875 8.953125 40 20 40 Z M 20 3.199219 C 29.277344 3.199219 36.800781 10.722656 36.800781 20 C 36.800781 29.277344 29.277344 36.800781 20 36.800781 C 10.722656 36.800781 3.199219 29.277344 3.199219 20 C 3.199219 10.722656 10.722656 3.199219 20 3.199219 Z M 20 3.199219 "/>
</g>
</svg>
