<?xml version="1.0" encoding="UTF-8"?>
<svg xmlns="http://www.w3.org/2000/svg" xmlns:xlink="http://www.w3.org/1999/xlink" width="40px" height="46px" viewBox="0 0 40 45" version="1.1">
<g id="surface1">
<path style=" stroke:none;fill-rule:nonzero;fill:rgb(100%,100%,100%);fill-opacity:1;" d="M 19.65625 11.699219 C 18.90625 11.699219 18.292969 12.304688 18.292969 13.050781 L 18.292969 25.648438 C 18.292969 26.394531 18.90625 27 19.65625 27 C 20.410156 27 21.019531 26.394531 21.019531 25.648438 L 21.019531 13.050781 C 21.019531 12.304688 20.410156 11.699219 19.65625 11.699219 Z M 19.65625 11.699219 "/>
<path style=" stroke:none;fill-rule:nonzero;fill:rgb(100%,100%,100%);fill-opacity:1;" d="M 39.886719 10.714844 C 39.886719 10.714844 39.246094 8.804688 37.960938 7.53125 C 36.671875 6.257812 34.746094 5.621094 34.746094 5.621094 L 30.660156 9.667969 C 28.480469 8.191406 25.984375 7.144531 23.292969 6.640625 L 23.292969 0.898438 C 23.292969 0.898438 21.476562 0 19.65625 0 C 17.839844 0 16.019531 0.898438 16.019531 0.898438 L 16.019531 6.640625 C 6.976562 8.335938 0.113281 16.210938 0.113281 25.648438 C 0.113281 36.320312 8.878906 45 19.65625 45 C 30.433594 45 39.203125 36.320312 39.203125 25.648438 C 39.203125 21.613281 37.945312 17.863281 35.800781 14.757812 Z M 19.65625 42.300781 C 10.382812 42.300781 2.839844 34.832031 2.839844 25.648438 C 2.839844 16.46875 10.382812 9 19.65625 9 C 28.929688 9 36.476562 16.46875 36.476562 25.648438 C 36.476562 34.832031 28.929688 42.300781 19.65625 42.300781 Z M 19.65625 42.300781 "/>
</g>
</svg>
