<?xml version="1.0" encoding="UTF-8"?>
<svg xmlns="http://www.w3.org/2000/svg" xmlns:xlink="http://www.w3.org/1999/xlink" width="75px" height="75px" viewBox="0 0 75 75" version="1.1">
<g id="surface1">
<path style="fill:none;stroke-width:8.125;stroke-linecap:round;stroke-linejoin:round;stroke:rgb(100%,100%,100%);stroke-opacity:1;stroke-miterlimit:4;" d="M 55.3125 30 C 55.3125 43.971875 43.971875 55.3125 30 55.3125 C 16.028125 55.3125 4.6875 43.971875 4.6875 30 C 4.6875 16.028125 16.028125 4.6875 30 4.6875 C 43.971875 4.6875 55.3125 16.028125 55.3125 30 Z M 55.3125 30 " transform="matrix(1.25,0,0,1.25,0,0)"/>
<path style="fill-rule:evenodd;fill:rgb(100%,100%,100%);fill-opacity:1;stroke-width:3.2982;stroke-linecap:round;stroke-linejoin:round;stroke:rgb(0%,0%,0%);stroke-opacity:1;stroke-miterlimit:4;" d="M 57.619648 31.040159 C 57.619648 45.786357 45.650524 57.75548 30.904326 57.75548 C 16.158128 57.75548 4.189005 45.786357 4.189005 31.040159 C 4.189005 16.293961 16.158128 4.324837 30.904326 4.324837 C 45.650524 4.324837 57.619648 16.293961 57.619648 31.040159 Z M 57.619648 31.040159 " transform="matrix(1.184362,0,0,1.184362,0.898075,0.7372)"/>
<path style="fill:none;stroke-width:2.6385;stroke-linecap:round;stroke-linejoin:round;stroke:rgb(0%,0%,0%);stroke-opacity:1;stroke-miterlimit:4;" d="M 44.667664 53.955968 L 45.558175 50.354347 L 51.000185 41.647131 L 48.130761 43.03237 L 42.49086 36.699849 L 43.480316 36.304067 L 48.625489 41.053457 L 53.275934 34.127263 L 51.890695 33.632534 L 50.604402 35.116719 L 48.625489 32.939915 L 49.516 32.346241 L 52.187532 33.137806 L 55.452738 30.664165 L 57.728488 30.664165 M 40.175532 5.927756 L 37.444633 6.917213 L 41.105621 11.270821 L 37.246741 15.921266 L 36.059394 14.931809 L 37.444633 13.843407 L 33.783644 12.853951 L 29.133199 18.790689 L 30.815275 19.087526 L 31.408949 21.26433 L 33.091025 18.98858 L 32.794188 17.207559 L 33.88259 15.129701 L 34.773101 15.129701 L 33.585753 17.40545 L 34.476264 18.592798 L 34.377318 21.066439 L 28.638471 22.649569 L 24.977483 24.925318 L 25.670102 27.893688 L 22.108059 27.497905 L 21.514385 29.674709 L 20.821766 31.059948 L 22.009114 31.752567 L 22.602787 32.14835 L 24.680646 32.247295 L 26.16483 29.476818 L 26.956395 29.476818 L 27.550069 28.586307 L 30.221601 27.695796 L 32.893133 31.257839 L 33.88259 30.268383 L 31.408949 27.300014 L 32.398405 27.300014 L 36.158339 32.346241 L 37.246741 29.476818 L 38.730926 29.278926 L 39.126708 25.914775 L 44.07399 26.904231 L 43.975045 28.091579 L 38.335143 30.169437 L 39.027763 31.851513 L 42.985588 31.059948 L 42.886643 34.720936 L 40.116165 35.710393 L 35.960448 35.017773 L 35.267829 36.205121 L 30.617384 34.918828 L 30.518438 32.643078 L 20.327038 33.830426 L 19.83231 36.00723 L 16.270267 38.184034 L 15.478702 42.933424 L 19.337581 48.47438 L 27.649015 49.760673 L 30.122656 50.750129 L 29.726873 52.432205 L 31.804731 54.213227 L 32.200514 55.202683 L 31.013166 56.390031 L 33.88259 57.577378 " transform="matrix(1.184362,0,0,1.184362,0.898075,0.7372)"/>
<path style="fill:none;stroke-width:2.6385;stroke-linecap:round;stroke-linejoin:round;stroke:rgb(0%,0%,0%);stroke-opacity:1;stroke-miterlimit:4;" d="M 8.057779 17.207559 L 10.729311 16.218103 L 10.729311 15.228646 L 11.421931 15.228646 L 11.421931 16.218103 L 12.807169 16.119157 L 16.764995 10.083473 L 12.213496 11.96344 L 12.213496 11.864495 " transform="matrix(1.184362,0,0,1.184362,0.898075,0.7372)"/>
<path style="fill:none;stroke-width:2.6385;stroke-linecap:round;stroke-linejoin:round;stroke:rgb(0%,0%,0%);stroke-opacity:1;stroke-miterlimit:4;" d="M 16.962886 14.338135 L 21.019657 12.65606 L 24.680646 12.161332 L 28.638471 8.005615 L 24.086972 7.411941 L 21.019657 10.776093 Z M 16.962886 14.338135 " transform="matrix(1.184362,0,0,1.184362,0.898075,0.7372)"/>
<path style="fill:none;stroke-width:2.6385;stroke-linecap:round;stroke-linejoin:round;stroke:rgb(0%,0%,0%);stroke-opacity:1;stroke-miterlimit:4;" d="M 24.5817 23.54008 L 27.154287 22.84746 L 25.867993 20.472765 L 26.560613 19.879091 L 25.769048 19.087526 Z M 24.5817 23.54008 " transform="matrix(1.184362,0,0,1.184362,0.898075,0.7372)"/>
<path style="fill:none;stroke-width:2.6385;stroke-linecap:round;stroke-linejoin:round;stroke:rgb(0%,0%,0%);stroke-opacity:1;stroke-miterlimit:4;" d="M 24.185918 22.352732 L 24.482754 20.769602 L 22.800679 21.858004 Z M 24.185918 22.352732 " transform="matrix(1.184362,0,0,1.184362,0.898075,0.7372)"/>
</g>
</svg>
