<?xml version="1.0" encoding="UTF-8"?>
<svg xmlns="http://www.w3.org/2000/svg" xmlns:xlink="http://www.w3.org/1999/xlink" width="200px" height="200px" viewBox="0 0 200 200" version="1.1">
<g id="surface1">
<path style="fill:none;stroke-width:1;stroke-linecap:round;stroke-linejoin:round;stroke:rgb(100%,100%,100%);stroke-opacity:1;stroke-miterlimit:4;" d="M 8.140313 14.94 L 8.140313 19.47 L 12.670312 19.47 L 12.670312 14.94 Z M 14.94 14.94 L 14.94 19.47 L 19.47 19.47 L 19.47 14.94 Z M 21.730313 14.94 L 21.730313 19.47 L 26.269687 19.47 L 26.269687 14.94 Z M 28.53 14.94 L 28.53 19.47 L 33.06 19.47 L 33.06 14.94 Z M 35.329687 14.94 L 35.329687 19.47 L 39.859687 19.47 L 39.859687 14.94 Z M 8.140313 21.730313 L 8.140313 26.269687 L 12.670312 26.269687 L 12.670312 21.730313 Z M 14.94 21.730313 L 14.94 26.269687 L 19.47 26.269687 L 19.47 21.730313 Z M 21.730313 21.730313 L 21.730313 26.269687 L 26.269687 26.269687 L 26.269687 21.730313 Z M 28.53 21.730313 L 28.53 26.269687 L 33.06 26.269687 L 33.06 21.730313 Z M 35.329687 21.730313 L 35.329687 26.269687 L 39.859687 26.269687 L 39.859687 21.730313 Z M 8.140313 28.53 L 8.140313 33.06 L 12.670312 33.06 L 12.670312 28.53 Z M 14.94 28.53 L 14.94 33.06 L 33.06 33.06 L 33.06 28.53 Z M 35.329687 28.53 L 35.329687 33.06 L 39.859687 33.06 L 39.859687 28.53 Z M 35.329687 28.53 " transform="matrix(4.166667,0,0,4.166667,0,0)"/>
<path style="fill:none;stroke-width:1;stroke-linecap:round;stroke-linejoin:round;stroke:rgb(100%,100%,100%);stroke-opacity:1;stroke-miterlimit:4;" d="M 43.5 35.500312 L 43.5 12.499688 C 43.5 11.395312 42.604687 10.5 41.500312 10.5 L 6.499687 10.5 C 5.395313 10.5 4.5 11.395312 4.5 12.499688 L 4.5 35.500312 C 4.5 36.604687 5.395313 37.5 6.499687 37.5 L 41.500312 37.5 C 42.604687 37.5 43.5 36.604687 43.5 35.500312 Z M 43.5 35.500312 " transform="matrix(4.166667,0,0,4.166667,0,0)"/>
</g>
</svg>
