<?xml version="1.0" encoding="UTF-8"?>
<svg xmlns="http://www.w3.org/2000/svg" xmlns:xlink="http://www.w3.org/1999/xlink" width="75px" height="75px" viewBox="0 0 75 75" version="1.1">
<g id="surface1">
<path style="fill-rule:evenodd;fill:rgb(70.196078%,70.196078%,70.196078%);fill-opacity:1;stroke-width:2.5516;stroke-linecap:round;stroke-linejoin:round;stroke:rgb(20%,20%,20%);stroke-opacity:1;stroke-miterlimit:4;" d="M 4.580552 37.860375 L 35.880254 37.860375 L 35.880254 62.801064 L 4.580552 62.801064 Z M 4.580552 37.860375 " transform="matrix(0.95885,0,0,0.8799,9.100125,9.042125)"/>
<path style="fill-rule:evenodd;fill:rgb(49.803922%,49.803922%,49.803922%);fill-opacity:1;stroke-width:3.332;stroke-linecap:round;stroke-linejoin:round;stroke:rgb(20%,20%,20%);stroke-opacity:1;stroke-miterlimit:4;" d="M 35.881922 31.49992 L 66.676117 31.498983 L 66.676117 62.802502 L 35.881922 62.798088 Z M 35.881922 31.49992 " transform="matrix(0.677887,-0.535412,0,0.729875,19.27375,37.705)"/>
<path style="fill-rule:evenodd;fill:rgb(49.803922%,49.803922%,49.803922%);fill-opacity:1;stroke-width:2.5022;stroke-linecap:round;stroke-linejoin:round;stroke:rgb(20%,20%,20%);stroke-opacity:1;stroke-miterlimit:4;" d="M 25.7053 1.470338 L 56.748839 1.470338 L 56.751148 14.193729 L 25.703691 14.193729 Z M 25.7053 1.470338 " transform="matrix(0.997088,0,-0.58105,0.8799,16.00125,13.8625)"/>
<path style="fill-rule:evenodd;fill:rgb(70.196078%,70.196078%,70.196078%);fill-opacity:1;stroke-width:2.4443;stroke-linecap:round;stroke-linejoin:round;stroke:rgb(20%,20%,20%);stroke-opacity:1;stroke-miterlimit:4;" d="M 4.963498 35.062868 L -6.109337 27.298033 L 14.251969 10.884328 L 25.577384 18.009562 Z M 4.963498 35.062868 " transform="matrix(0.95885,0,0,0.95885,9.100125,8.915125)"/>
<path style="fill-rule:evenodd;fill:rgb(70.196078%,70.196078%,70.196078%);fill-opacity:1;stroke-width:3.3832;stroke-linecap:round;stroke-linejoin:round;stroke:rgb(20%,20%,20%);stroke-opacity:1;stroke-miterlimit:4;" d="M 8.652156 12.414463 L 40.717749 12.414463 L 40.717583 44.47535 L 8.65199 44.47535 Z M 8.652156 12.414463 " transform="matrix(0.95885,0,-0.6299,0.500513,33.1175,20.12625)"/>
<path style="fill:none;stroke-width:1.875;stroke-linecap:butt;stroke-linejoin:miter;stroke:rgb(20%,20%,20%);stroke-opacity:1;stroke-miterlimit:4;" d="M 27.73761 23.4806 L 27.73761 35.952475 " transform="matrix(1.25,0,0,1.25,-1.086075,-2.6945)"/>
</g>
</svg>
